<?xml version="1.0" encoding="utf-8"?>
<!-- Generator: Adobe Illustrator 21.0.2, SVG Export Plug-In . SVG Version: 6.00 Build 0)  -->
<svg version="1.1" id="Слой_1" xmlns="http://www.w3.org/2000/svg" xmlns:xlink="http://www.w3.org/1999/xlink" x="0px" y="0px"
	 viewBox="0 0 512 512" style="enable-background:new 0 0 512 512;" xml:space="preserve">
<style type="text/css">
	.st0{fill:#7AC943;}
	.st1{fill:#FFFFFF;}
</style>
<g>
	<circle class="st0" cx="256" cy="256" r="256"/>
</g>
<g>
	<g>
		<path class="st1" d="M338.4,305.1c-10.4-10.2-23.3-10.2-33.6,0c-7.9,7.8-15.7,15.6-23.5,23.5c-2.1,2.2-3.9,2.6-6.5,1.2
			c-5.1-2.8-10.5-5-15.4-8.1c-22.8-14.3-41.9-32.8-58.8-53.5c-8.4-10.3-15.9-21.3-21.1-33.8c-1.1-2.5-0.9-4.2,1.2-6.2
			c7.9-7.6,15.5-15.4,23.3-23.2c10.8-10.8,10.8-23.5-0.1-34.4c-6.1-6.2-12.3-12.3-18.4-18.5c-6.3-6.3-12.6-12.8-19-19
			c-10.4-10.1-23.3-10.1-33.6,0.1c-7.9,7.8-15.5,15.8-23.6,23.5c-7.5,7.1-11.2,15.7-12,25.8c-1.3,16.5,2.8,32,8.5,47.1
			c11.6,31.3,29.3,59.1,50.8,84.7c29,34.5,63.6,61.8,104.1,81.5c18.2,8.9,37.1,15.7,57.7,16.8c14.1,0.8,26.4-2.8,36.3-13.8
			c6.7-7.5,14.3-14.4,21.5-21.6c10.6-10.7,10.6-23.7,0.1-34.2C363.7,330.2,351,317.6,338.4,305.1z"/>
		<path class="st1" d="M325.8,252.4l24.4-4.2c-3.8-22.4-14.4-42.7-30.5-58.8c-17-17-38.5-27.7-62.1-31l-3.4,24.5
			c18.3,2.6,35,10.8,48.1,24C314.7,219.4,322.8,235.1,325.8,252.4z"/>
		<path class="st1" d="M363.9,146.4c-28.2-28.2-63.8-45.9-103.1-51.4l-3.4,24.5c34,4.8,64.8,20.2,89.1,44.4
			c23.1,23.1,38.2,52.2,43.7,84.3l24.4-4.2C408.1,206.9,390.6,173.2,363.9,146.4z"/>
	</g>
</g>
</svg>
